<svg xmlns="http://www.w3.org/2000/svg" xmlns:xlink="http://www.w3.org/1999/xlink" width="500" zoomAndPan="magnify" viewBox="0 0 375 374.999991" height="500" preserveAspectRatio="xMidYMid meet" version="1.0"><defs><clipPath id="ed439a94cb"><path d="M 187.5 0 C 83.945312 0 0 83.945312 0 187.5 C 0 291.054688 83.945312 375 187.5 375 C 291.054688 375 375 291.054688 375 187.5 C 375 83.945312 291.054688 0 187.5 0 Z M 187.5 0 " clip-rule="nonzero"/></clipPath><clipPath id="d605802cdb"><path d="M 0 0 L 375 0 L 375 375 L 0 375 Z M 0 0 " clip-rule="nonzero"/></clipPath><clipPath id="3b97d6e8ae"><path d="M 187.5 0 C 83.945312 0 0 83.945312 0 187.5 C 0 291.054688 83.945312 375 187.5 375 C 291.054688 375 375 291.054688 375 187.5 C 375 83.945312 291.054688 0 187.5 0 Z M 187.5 0 " clip-rule="nonzero"/></clipPath><clipPath id="2d7bad2d1a"><rect x="0" width="375" y="0" height="375"/></clipPath><clipPath id="d18e4d7542"><path d="M 88.761719 37.5 L 162.46875 37.5 L 162.46875 111.207031 L 88.761719 111.207031 Z M 88.761719 37.5 " clip-rule="nonzero"/></clipPath><clipPath id="a3c028a42c"><path d="M 125.617188 37.5 C 105.261719 37.5 88.761719 54 88.761719 74.351562 C 88.761719 94.707031 105.261719 111.207031 125.617188 111.207031 C 145.96875 111.207031 162.46875 94.707031 162.46875 74.351562 C 162.46875 54 145.96875 37.5 125.617188 37.5 Z M 125.617188 37.5 " clip-rule="nonzero"/></clipPath><clipPath id="a08de5a6e0"><path d="M 0.761719 0.5 L 74.46875 0.5 L 74.46875 74.207031 L 0.761719 74.207031 Z M 0.761719 0.5 " clip-rule="nonzero"/></clipPath><clipPath id="bccd6fa08c"><path d="M 37.617188 0.5 C 17.261719 0.5 0.761719 17 0.761719 37.351562 C 0.761719 57.707031 17.261719 74.207031 37.617188 74.207031 C 57.96875 74.207031 74.46875 57.707031 74.46875 37.351562 C 74.46875 17 57.96875 0.5 37.617188 0.5 Z M 37.617188 0.5 " clip-rule="nonzero"/></clipPath><clipPath id="02d34cfdf1"><rect x="0" width="75" y="0" height="75"/></clipPath><clipPath id="acb263ec7b"><path d="M 250.484375 62.660156 L 300.640625 62.660156 L 300.640625 112.816406 L 250.484375 112.816406 Z M 250.484375 62.660156 " clip-rule="nonzero"/></clipPath><clipPath id="b3b54e43e7"><path d="M 275.5625 62.660156 C 261.710938 62.660156 250.484375 73.890625 250.484375 87.738281 C 250.484375 101.589844 261.710938 112.816406 275.5625 112.816406 C 289.410156 112.816406 300.640625 101.589844 300.640625 87.738281 C 300.640625 73.890625 289.410156 62.660156 275.5625 62.660156 Z M 275.5625 62.660156 " clip-rule="nonzero"/></clipPath><clipPath id="fbbf1da51e"><path d="M 0.484375 0.660156 L 50.640625 0.660156 L 50.640625 50.816406 L 0.484375 50.816406 Z M 0.484375 0.660156 " clip-rule="nonzero"/></clipPath><clipPath id="500dc46424"><path d="M 25.5625 0.660156 C 11.710938 0.660156 0.484375 11.890625 0.484375 25.738281 C 0.484375 39.589844 11.710938 50.816406 25.5625 50.816406 C 39.410156 50.816406 50.640625 39.589844 50.640625 25.738281 C 50.640625 11.890625 39.410156 0.660156 25.5625 0.660156 Z M 25.5625 0.660156 " clip-rule="nonzero"/></clipPath><clipPath id="e997051eda"><rect x="0" width="51" y="0" height="51"/></clipPath><clipPath id="6ee2933a95"><path d="M 37.5 161.816406 L 125.617188 161.816406 L 125.617188 249.929688 L 37.5 249.929688 Z M 37.5 161.816406 " clip-rule="nonzero"/></clipPath><clipPath id="5b6ebbaf49"><path d="M 81.558594 161.816406 C 57.226562 161.816406 37.5 181.539062 37.5 205.875 C 37.5 230.207031 57.226562 249.929688 81.558594 249.929688 C 105.890625 249.929688 125.617188 230.207031 125.617188 205.875 C 125.617188 181.539062 105.890625 161.816406 81.558594 161.816406 Z M 81.558594 161.816406 " clip-rule="nonzero"/></clipPath><clipPath id="508ddb2014"><path d="M 0.5 0.816406 L 88.617188 0.816406 L 88.617188 88.929688 L 0.5 88.929688 Z M 0.5 0.816406 " clip-rule="nonzero"/></clipPath><clipPath id="2df6bc1a54"><path d="M 44.558594 0.816406 C 20.226562 0.816406 0.5 20.539062 0.5 44.875 C 0.5 69.207031 20.226562 88.929688 44.558594 88.929688 C 68.890625 88.929688 88.617188 69.207031 88.617188 44.875 C 88.617188 20.539062 68.890625 0.816406 44.558594 0.816406 Z M 44.558594 0.816406 " clip-rule="nonzero"/></clipPath><clipPath id="dac6408741"><rect x="0" width="89" y="0" height="89"/></clipPath><clipPath id="baf5b61338"><path d="M 194.425781 157.574219 L 261.207031 157.574219 L 261.207031 224.351562 L 194.425781 224.351562 Z M 194.425781 157.574219 " clip-rule="nonzero"/></clipPath><clipPath id="8bb69c783c"><path d="M 227.816406 157.574219 C 209.375 157.574219 194.425781 172.523438 194.425781 190.964844 C 194.425781 209.40625 209.375 224.351562 227.816406 224.351562 C 246.257812 224.351562 261.207031 209.40625 261.207031 190.964844 C 261.207031 172.523438 246.257812 157.574219 227.816406 157.574219 Z M 227.816406 157.574219 " clip-rule="nonzero"/></clipPath><clipPath id="a5cd0a9681"><path d="M 0.425781 0.574219 L 67.207031 0.574219 L 67.207031 67.351562 L 0.425781 67.351562 Z M 0.425781 0.574219 " clip-rule="nonzero"/></clipPath><clipPath id="fb0ccd489b"><path d="M 33.816406 0.574219 C 15.375 0.574219 0.425781 15.523438 0.425781 33.964844 C 0.425781 52.40625 15.375 67.351562 33.816406 67.351562 C 52.257812 67.351562 67.207031 52.40625 67.207031 33.964844 C 67.207031 15.523438 52.257812 0.574219 33.816406 0.574219 Z M 33.816406 0.574219 " clip-rule="nonzero"/></clipPath><clipPath id="a76f25adcd"><rect x="0" width="68" y="0" height="68"/></clipPath><clipPath id="7bc4a99256"><path d="M 300.640625 230.214844 L 340.070312 230.214844 L 340.070312 269.648438 L 300.640625 269.648438 Z M 300.640625 230.214844 " clip-rule="nonzero"/></clipPath><clipPath id="7d5a36d877"><path d="M 320.355469 230.214844 C 309.464844 230.214844 300.640625 239.042969 300.640625 249.929688 C 300.640625 260.820312 309.464844 269.648438 320.355469 269.648438 C 331.246094 269.648438 340.070312 260.820312 340.070312 249.929688 C 340.070312 239.042969 331.246094 230.214844 320.355469 230.214844 Z M 320.355469 230.214844 " clip-rule="nonzero"/></clipPath><clipPath id="1f01b88428"><path d="M 0.640625 0.214844 L 40.070312 0.214844 L 40.070312 39.648438 L 0.640625 39.648438 Z M 0.640625 0.214844 " clip-rule="nonzero"/></clipPath><clipPath id="6020f3b0f9"><path d="M 20.355469 0.214844 C 9.464844 0.214844 0.640625 9.042969 0.640625 19.929688 C 0.640625 30.820312 9.464844 39.648438 20.355469 39.648438 C 31.246094 39.648438 40.070312 30.820312 40.070312 19.929688 C 40.070312 9.042969 31.246094 0.214844 20.355469 0.214844 Z M 20.355469 0.214844 " clip-rule="nonzero"/></clipPath><clipPath id="5d71089485"><rect x="0" width="41" y="0" height="40"/></clipPath><clipPath id="e2b419f8aa"><path d="M 206.9375 283.601562 L 239.945312 283.601562 L 239.945312 316.609375 L 206.9375 316.609375 Z M 206.9375 283.601562 " clip-rule="nonzero"/></clipPath><clipPath id="84a728c910"><path d="M 223.441406 283.601562 C 214.328125 283.601562 206.9375 290.988281 206.9375 300.105469 C 206.9375 309.222656 214.328125 316.609375 223.441406 316.609375 C 232.558594 316.609375 239.945312 309.222656 239.945312 300.105469 C 239.945312 290.988281 232.558594 283.601562 223.441406 283.601562 Z M 223.441406 283.601562 " clip-rule="nonzero"/></clipPath><clipPath id="f64f93fbeb"><path d="M 0.9375 0.601562 L 33.945312 0.601562 L 33.945312 33.609375 L 0.9375 33.609375 Z M 0.9375 0.601562 " clip-rule="nonzero"/></clipPath><clipPath id="075d29184e"><path d="M 17.441406 0.601562 C 8.328125 0.601562 0.9375 7.988281 0.9375 17.105469 C 0.9375 26.222656 8.328125 33.609375 17.441406 33.609375 C 26.558594 33.609375 33.945312 26.222656 33.945312 17.105469 C 33.945312 7.988281 26.558594 0.601562 17.441406 0.601562 Z M 17.441406 0.601562 " clip-rule="nonzero"/></clipPath><clipPath id="2eafa9fce7"><rect x="0" width="34" y="0" height="34"/></clipPath></defs><g clip-path="url(#ed439a94cb)"><g transform="matrix(1, 0, 0, 1, 0, 0)"><g clip-path="url(#2d7bad2d1a)"><g clip-path="url(#d605802cdb)"><g clip-path="url(#3b97d6e8ae)"><rect x="-82.5" width="540" fill="#2f4551" height="539.999987" y="-82.499998" fill-opacity="1"/></g></g></g></g></g><g clip-path="url(#d18e4d7542)"><g clip-path="url(#a3c028a42c)"><g transform="matrix(1, 0, 0, 1, 88, 37)"><g clip-path="url(#02d34cfdf1)"><g clip-path="url(#a08de5a6e0)"><g clip-path="url(#bccd6fa08c)"><path fill="#e2e2e2" d="M 0.761719 0.5 L 74.46875 0.5 L 74.46875 74.207031 L 0.761719 74.207031 Z M 0.761719 0.5 " fill-opacity="1" fill-rule="nonzero"/></g></g></g></g></g></g><g clip-path="url(#acb263ec7b)"><g clip-path="url(#b3b54e43e7)"><g transform="matrix(1, 0, 0, 1, 250, 62)"><g clip-path="url(#e997051eda)"><g clip-path="url(#fbbf1da51e)"><g clip-path="url(#500dc46424)"><path fill="#e2e2e2" d="M 0.484375 0.660156 L 50.640625 0.660156 L 50.640625 50.816406 L 0.484375 50.816406 Z M 0.484375 0.660156 " fill-opacity="1" fill-rule="nonzero"/></g></g></g></g></g></g><g clip-path="url(#6ee2933a95)"><g clip-path="url(#5b6ebbaf49)"><g transform="matrix(1, 0, 0, 1, 37, 161)"><g clip-path="url(#dac6408741)"><g clip-path="url(#508ddb2014)"><g clip-path="url(#2df6bc1a54)"><path fill="#e2e2e2" d="M 0.5 0.816406 L 88.617188 0.816406 L 88.617188 88.929688 L 0.5 88.929688 Z M 0.5 0.816406 " fill-opacity="1" fill-rule="nonzero"/></g></g></g></g></g></g><g clip-path="url(#baf5b61338)"><g clip-path="url(#8bb69c783c)"><g transform="matrix(1, 0, 0, 1, 194, 157)"><g clip-path="url(#a76f25adcd)"><g clip-path="url(#a5cd0a9681)"><g clip-path="url(#fb0ccd489b)"><path fill="#e2e2e2" d="M 0.425781 0.574219 L 67.207031 0.574219 L 67.207031 67.351562 L 0.425781 67.351562 Z M 0.425781 0.574219 " fill-opacity="1" fill-rule="nonzero"/></g></g></g></g></g></g><g clip-path="url(#7bc4a99256)"><g clip-path="url(#7d5a36d877)"><g transform="matrix(1, 0, 0, 1, 300, 230)"><g clip-path="url(#5d71089485)"><g clip-path="url(#1f01b88428)"><g clip-path="url(#6020f3b0f9)"><path fill="#e2e2e2" d="M 0.640625 0.214844 L 40.070312 0.214844 L 40.070312 39.648438 L 0.640625 39.648438 Z M 0.640625 0.214844 " fill-opacity="1" fill-rule="nonzero"/></g></g></g></g></g></g><g clip-path="url(#e2b419f8aa)"><g clip-path="url(#84a728c910)"><g transform="matrix(1, 0, 0, 1, 206, 283)"><g clip-path="url(#2eafa9fce7)"><g clip-path="url(#f64f93fbeb)"><g clip-path="url(#075d29184e)"><path fill="#e2e2e2" d="M 0.9375 0.601562 L 33.945312 0.601562 L 33.945312 33.609375 L 0.9375 33.609375 Z M 0.9375 0.601562 " fill-opacity="1" fill-rule="nonzero"/></g></g></g></g></g></g></svg>